#!OML:ASF H:\IndianDance\Patient Classification 1\Patient 1\Session 1\dancer.ASF
:FULLY-SPECIFIED
:DEGREES
2241
root 29.3354 15.4576 6.68573 -175.382 -30.6384 -179.65
lowerback 0.613293 2.2243 4.21021
upperback -4.8246 2.99161 1.41129
thorax -5.19831 1.2532 -1.03147
lowerneck -17.5689 6.62386 5.65923
upperneck 17.3831 7.55114 -0.240346
head 8.53941 3.88711 -0.0544201
rclavicle -2.41026e-014 8.74653e-015
rhumerus -31.2835 -6.25436 -81.6628
rradius 29.8701
rwrist 0.245908
rhand -20.8687 8.53843
rfingers 7.12502
rthumb 5.50113 338.63
lclavicle -2.41026e-014 8.74653e-015
lhumerus -29.3435 2.0848 92.7411
lradius 25.2587
lwrist -6.39335
lhand -16.9422 8.41535
lfingers 7.12502
lthumb 9.29108 -321.809
rfemur -363.104 0.0911523 373.873
rtibia 31.246
rfoot -16.4504 -3.28856
rtoes -17.4472
lfemur -201.358 172.325 -200.559
ltibia 33.3373
lfoot -9.11745 12.3841
ltoes -1.68926
2242
root 29.2533 15.4558 6.67135 -175.473 -30.7665 -179.712
lowerback 0.678981 2.24761 4.23817
upperback -4.78087 3.02837 1.28536
thorax -5.17997 1.27156 -1.18105
lowerneck -17.5948 6.62759 5.64372
upperneck 17.3741 7.5805 -0.334901
head 8.54475 3.89 -0.0790003
rclavicle 4.34344e-014 2.94201e-014
rhumerus -31.7362 -7.67168 -81.1267
rradius 28.8454
rwrist 0.814994
rhand -20.9918 8.29877
rfingers 7.12502
rthumb 5.38223 338.387
lclavicle 4.34344e-014 2.94201e-014
lhumerus -29.4774 1.62296 93.1634
lradius 24.9765
lwrist -6.91194
lhand -15.5241 8.52207
lfingers 7.12502
lthumb 10.6592 -321.768
rfemur -363.333 -0.295944 373.44
rtibia 32.2415
rfoot -15.8842 -2.65148
rtoes -17.3466
lfemur -200.966 172.228 -200.847
ltibia 33.2728
lfoot -9.44109 12.3083
ltoes -2.07051
2243
root 29.1727 15.453 6.65757 -175.581 -30.8762 -179.81
lowerback 0.802665 2.26574 4.22978
upperback -4.72814 3.0612 1.15158
thorax -5.18661 1.28961 -1.32072
lowerneck -17.6118 6.64029 5.63213
upperneck 17.3609 7.62363 -0.438403
head 8.54809 3.8987 -0.10573
rclavicle -3.73715e-014 -1.03368e-014
rhumerus -32.175 -9.17531 -80.5241
rradius 27.7398
rwrist 1.55631
rhand -21.0766 8.05913
rfingers 7.12502
rthumb 5.30043 338.145
lclavicle -3.73715e-014 -1.03368e-014
lhumerus -29.6758 1.12511 93.5409
lradius 24.8191
lwrist -7.40693
lhand -14.0264 8.53626
lfingers 7.12502
lthumb 12.1037 -321.834
rfemur -363.588 -0.611938 372.968
rtibia 33.3389
rfoot -15.265 -1.97768
rtoes -16.8801
lfemur -200.525 172.116 -201.157
ltibia 33.1891
lfoot -9.75797 12.229
ltoes -2.41901
2244
root 29.0942 15.4494 6.64442 -175.687 -30.9767 -179.952
lowerback 0.972143 2.27698 4.17181
upperback -4.67176 3.08601 1.01161
thorax -5.21789 1.30557 -1.44091
lowerneck -17.6255 6.66307 5.61842
upperneck 17.3474 7.68212 -0.545296
head 8.55131 3.91414 -0.131338
rclavicle -7.26061e-014 -1.11319e-014
rhumerus -32.605 -10.7702 -79.8439
rradius 26.5624
rwrist 2.47774
rhand -21.1248 7.82686
rfingers 7.12502
rthumb 5.25381 337.912
lclavicle -7.26061e-014 -1.11319e-014
lhumerus -29.9226 0.582188 93.8797
lradius 24.7599
lwrist -7.83228
lhand -12.498 8.43574
lfingers 7.12502
lthumb 13.5771 -322.027
rfemur -363.886 -0.833675 372.459
rtibia 34.538
rfoot -14.5884 -1.27074
rtoes -15.8194
lfemur -200.054 171.993 -201.497
ltibia 33.0844
lfoot -10.059 12.1385
ltoes -2.73174
2245
root 29.018 15.445 6.63199 -175.773 -31.0973 -180.143
lowerback 1.1752 2.27441 4.05514
upperback -4.61691 3.09174 0.866748
thorax -5.27348 1.31408 -1.53425
lowerneck -17.6374 6.69312 5.59698
upperneck 17.3371 7.75396 -0.657531
head 8.55561 3.93474 -0.155762
rclavicle -2.43511e-014 -2.46493e-014
rhumerus -33.0415 -12.4713 -79.0645
rradius 25.3295
rwrist 3.60824
rhand -21.1253 7.61091
rfingers 7.12502
rthumb 5.25332 337.696
lclavicle -2.43511e-014 -2.46493e-014
lhumerus -30.2013 -0.00142384 94.1852
lradius 24.7693
lwrist -8.16124
lhand -10.959 8.24261
lfingers 7.12502
lthumb 15.06 -322.325
rfemur -364.237 -0.978072 371.913
rtibia 35.8356
rfoot -13.842 -0.565979
rtoes -14.2089
lfemur -199.574 171.874 -201.874
ltibia 32.9588
lfoot -10.3341 12.024
ltoes -2.98666
2246
root 28.9441 15.4395 6.62034 -175.827 -31.283 -180.386
lowerback 1.39619 2.24519 3.88266
upperback -4.56661 3.05954 0.717937
thorax -5.34866 1.30554 -1.59961
lowerneck -17.6457 6.72846 5.56761
upperneck 17.3243 7.83744 -0.778905
head 8.55895 3.95932 -0.180606
rclavicle 8.82604e-014 4.77083e-015
rhumerus -33.5036 -14.2794 -78.1692
rradius 24.0663
rwrist 4.96334
rhand -21.0698 7.40192
rfingers 7.12502
rthumb 5.30699 337.488
lclavicle 8.82604e-014 4.77083e-015
lhumerus -30.4951 -0.632351 94.4643
lradius 24.8224
lwrist -8.33543
lhand -9.45742 7.96906
lfingers 7.12502
lthumb 16.5061 -322.713
rfemur -364.644 -1.08927 371.338
rtibia 37.2264
rfoot -13.0183 0.0833138
rtoes -12.2803
lfemur -199.104 171.785 -202.29
ltibia 32.815
lfoot -10.5772 11.8663
ltoes -3.1677
2247
root 28.8728 15.4333 6.60915 -175.841 -31.5057 -180.674
lowerback 1.62062 2.20026 3.65445
upperback -4.52112 3.00241 0.567194
thorax -5.43476 1.28653 -1.63466
lowerneck -17.6473 6.76776 5.533
upperneck 17.3046 7.93081 -0.912573
head 8.55944 3.98694 -0.207756
rclavicle 1.63997e-014 1.19271e-015
rhumerus -34.0045 -16.1945 -77.147
rradius 22.7916
rwrist 6.55318
rhand -20.9584 7.19637
rfingers 7.12502
rthumb 5.41452 337.286
lclavicle 1.63997e-014 1.19271e-015
lhumerus -30.7904 -1.24682 94.699
lradius 24.9043
lwrist -8.37264
lhand -8.00474 7.6558
lfingers 7.12502
lthumb 17.9043 -323.148
rfemur -365.126 -1.17168 370.742
rtibia 38.7016
rfoot -12.1088 0.641643
rtoes -10.3898
lfemur -198.654 171.71 -202.739
ltibia 32.6581
lfoot -10.7927 11.6844
ltoes -3.29302
2248
root 28.8044 15.4266 6.59804 -175.806 -31.7553 -181
lowerback 1.8363 2.14492 3.36801
upperback -4.4837 2.92608 0.419327
thorax -5.52813 1.26 -1.63263
lowerneck -17.6565 6.81337 5.48406
upperneck 17.2969 8.03575 -1.044
head 8.5651 4.01911 -0.229922
rclavicle -9.54166e-015 -1.59028e-015
rhumerus -34.5708 -18.2264 -75.9726
rradius 21.5282
rwrist 8.41143
rhand -20.7613 7.00772
rfingers 7.12502
rthumb 5.60483 337.102
lclavicle -9.54166e-015 -1.59028e-015
lhumerus -31.0712 -1.83262 94.89
lradius 24.9916
lwrist -8.24039
lhand -6.62979 7.34518
lfingers 7.12502
lthumb 19.2268 -323.585
rfemur -365.695 -1.22575 370.138
rtibia 40.2503
rfoot -11.1269 1.09329
rtoes -8.69071
lfemur -198.24 171.642 -203.214
ltibia 32.4949
lfoot -10.9857 11.4808
ltoes -3.35373
2249
root 28.7387 15.4194 6.58662 -175.73 -32.0094 -181.348
lowerback 2.03666 2.08743 3.03537
upperback -4.45256 2.84153 0.277378
thorax -5.62193 1.23113 -1.5972
lowerneck -17.6679 6.86279 5.43359
upperneck 17.2921 8.14903 -1.18875
head 8.57303 4.05357 -0.255035
rclavicle -1.86858e-014 1.47101e-014
rhumerus -35.225 -20.3437 -74.6487
rradius 20.3077
rwrist 10.4883
rhand -20.5055 6.82316
rfingers 7.12502
rthumb 5.85178 336.924
lclavicle -1.86858e-014 1.47101e-014
lhumerus -31.3247 -2.35701 95.0302
lradius 25.0698
lwrist -7.94494
lhand -5.33643 7.12641
lfingers 7.12502
lthumb 20.4701 -323.933
rfemur -366.355 -1.26174 369.541
rtibia 41.8594
rfoot -10.0901 1.42865
rtoes -7.57386
lfemur -197.862 171.578 -203.704
ltibia 32.3321
lfoot -11.1712 11.2766
ltoes -3.34043
2250
root 28.6757 15.4121 6.57453 -175.622 -32.2491 -181.699
lowerback 2.21522 2.03483 2.67191
upperback -4.42664 2.75876 0.146392
thorax -5.71022 1.20442 -1.53202
lowerneck -17.6837 6.91676 5.37734
upperneck 17.2953 8.27051 -1.33659
head 8.58478 4.09094 -0.27888
rclavicle 6.88789e-014 -7.95139e-016
rhumerus -35.9852 -22.5392 -73.1656
rradius 19.1446
rwrist 12.7709
rhand -20.198 6.64369
rfingers 7.12502
rthumb 6.14869 336.753
lclavicle 6.88789e-014 -7.95139e-016
lhumerus -31.5319 -2.80695 95.1152
lradius 25.1166
lwrist -7.49457
lhand -4.13551 7.05483
lfingers 7.12502
lthumb 21.6238 -324.133
rfemur -367.105 -1.26707 368.976
rtibia 43.5137
rfoot -9.03597 1.68517
rtoes -6.90626
lfemur -197.524 171.518 -204.186
ltibia 32.178
lfoot -11.3296 11.0818
ltoes -3.24413
